<?xml version="1.0" encoding="iso-8859-1"?>
<!-- Uploaded to: SVG Repo, www.svgrepo.com, Generator: SVG Repo Mixer Tools -->
<svg fill="#000000" height="800px" width="800px" version="1.1" id="Layer_1" xmlns="http://www.w3.org/2000/svg" xmlns:xlink="http://www.w3.org/1999/xlink" 
	 viewBox="0 0 512 512" xml:space="preserve">
<g transform="translate(1 1)">
	<g>
		<g>
			<path d="M340.745,314.733H170.078c-13.653,0-25.6,11.093-25.6,25.6v102.4c0,13.653,11.093,25.6,25.6,25.6h170.667
				c13.653,0,25.6-11.947,25.6-25.6v-102.4C366.345,326.68,355.251,314.733,340.745,314.733z M349.278,442.733
				c0,4.267-3.413,8.533-8.533,8.533H170.078c-4.267,0-8.533-3.413-8.533-8.533v-102.4c0-4.267,3.413-8.533,8.533-8.533h170.667
				c4.267,0,8.533,3.413,8.533,8.533V442.733z"/>
			<path d="M187.145,365.933h85.333c5.12,0,8.533-3.413,8.533-8.533s-3.413-8.533-8.533-8.533h-85.333
				c-5.12,0-8.533,3.413-8.533,8.533S182.025,365.933,187.145,365.933z"/>
			<path d="M323.678,348.867h-17.067c-5.12,0-8.533,3.413-8.533,8.533s3.413,8.533,8.533,8.533h17.067
				c5.12,0,8.533-3.413,8.533-8.533S328.798,348.867,323.678,348.867z"/>
			<path d="M187.145,400.067h17.067c5.12,0,8.533-3.413,8.533-8.533c0-5.12-3.413-8.533-8.533-8.533h-17.067
				c-5.12,0-8.533,3.413-8.533,8.533C178.611,396.653,182.025,400.067,187.145,400.067z"/>
			<path d="M323.678,383h-85.333c-5.12,0-8.533,3.413-8.533,8.533c0,5.12,3.413,8.533,8.533,8.533h85.333
				c5.12,0,8.533-3.413,8.533-8.533C332.211,386.413,328.798,383,323.678,383z"/>
			<path d="M255.411,417.133h-68.267c-5.12,0-8.533,3.413-8.533,8.533s3.413,8.533,8.533,8.533h68.267
				c5.12,0,8.533-3.413,8.533-8.533S260.531,417.133,255.411,417.133z"/>
			<path d="M323.678,417.133h-34.133c-5.12,0-8.533,3.413-8.533,8.533s3.413,8.533,8.533,8.533h34.133
				c5.12,0,8.533-3.413,8.533-8.533S328.798,417.133,323.678,417.133z"/>
			<path d="M408.158,473.453v-128c0-60.587-7.68-121.173-22.187-180.053c-7.68-31.573-11.947-64.853-11.947-97.28V45.701
				c0.55-1.169,0.853-2.525,0.853-4.035V7.533c0-5.12-3.413-8.533-8.533-8.533h-84.48h-0.853h-50.347
				c-0.145,0-0.284,0.013-0.427,0.018C230.096-0.987,229.957-1,229.811-1h-85.333c-5.12,0-8.533,3.413-8.533,8.533v34.133V68.12
				c0,32.427-4.267,65.707-11.947,96.427c-14.507,58.88-22.187,119.467-22.187,180.053v128c0,21.333,17.067,38.4,38.4,38.4h230.4
				C391.945,511,409.011,493.933,408.158,473.453z M357.811,33.133h-67.413V16.067h67.413V33.133z M272.478,37.632
				c-0.55,1.169-0.853,2.525-0.853,4.034v70.206l-8.533-14.74c-1.707-2.56-4.267-4.267-7.68-4.267s-5.973,1.707-7.68,4.267
				l-9.387,16.213v-71.68v-25.6h34.133V37.632z M153.011,16.067h68.267v17.067h-68.267V16.067z M392.798,472.6
				c0,11.947-9.387,21.333-21.333,21.333H140.211c-11.947,0-21.333-9.387-21.333-20.48v-128c0-59.733,7.68-118.613,21.333-175.787
				c8.533-33.28,12.8-67.413,12.8-101.547V50.2h69.12v93.013c0,4.267,2.56,7.68,5.973,8.533c3.413,1.707,7.68,0,9.387-3.413
				l17.92-30.72l17.92,30.72c1.556,2.335,4.526,3.943,6.979,4.212c1.369,0.33,2.804,0.383,4.114,0.055
				c3.413-1.707,5.973-5.12,5.973-8.533V50.2h68.267v17.067c0,34.133,4.267,68.267,12.8,101.547
				c13.653,57.173,21.333,116.907,21.333,175.787V472.6z"/>
		</g>
	</g>
</g>
</svg>