<svg xmlns="http://www.w3.org/2000/svg" xmlns:xlink="http://www.w3.org/1999/xlink" version="1.1" width="256" height="256" viewBox="0 0 256 256" xml:space="preserve">

<defs>
</defs>
<g style="stroke: none; stroke-width: 0; stroke-dasharray: none; stroke-linecap: butt; stroke-linejoin: miter; stroke-miterlimit: 10; fill: none; fill-rule: nonzero; opacity: 1;" transform="translate(1.4065934065934016 1.4065934065934016) scale(2.81 2.81)" >
	<path d="M 51.515 78.284 H 1 c -0.552 0 -1 -0.447 -1 -1 V 26.77 c 0 -0.552 0.448 -1 1 -1 h 18.751 c 0.552 0 1 0.448 1 1 s -0.448 1 -1 1 H 2 v 48.515 h 48.515 V 27.77 H 32.763 c -0.552 0 -1 -0.448 -1 -1 s 0.448 -1 1 -1 h 18.752 c 0.553 0 1 0.448 1 1 v 50.515 C 52.515 77.837 52.067 78.284 51.515 78.284 z" style="stroke: none; stroke-width: 1; stroke-dasharray: none; stroke-linecap: butt; stroke-linejoin: miter; stroke-miterlimit: 10; fill: rgb(0,0,0); fill-rule: nonzero; opacity: 1;" transform=" matrix(1 0 0 1 0 0) " stroke-linecap="round" />
	<path d="M 51.515 27.77 H 32.763 c -0.552 0 -1 -0.448 -1 -1 s 0.448 -1 1 -1 h 18.508 l 23.23 -12.053 H 28.33 L 5.099 25.77 h 14.653 c 0.552 0 1 0.448 1 1 s -0.448 1 -1 1 H 1 c -0.461 0 -0.862 -0.315 -0.972 -0.763 c -0.109 -0.448 0.102 -0.912 0.511 -1.125 l 27.085 -14.053 c 0.142 -0.074 0.3 -0.112 0.46 -0.112 H 78.6 c 0.461 0 0.862 0.315 0.972 0.763 c 0.109 0.448 -0.102 0.912 -0.511 1.125 L 51.976 27.657 C 51.833 27.731 51.675 27.77 51.515 27.77 z" style="stroke: none; stroke-width: 1; stroke-dasharray: none; stroke-linecap: butt; stroke-linejoin: miter; stroke-miterlimit: 10; fill: rgb(0,0,0); fill-rule: nonzero; opacity: 1;" transform=" matrix(1 0 0 1 0 0) " stroke-linecap="round" />
	<path d="M 51.515 78.284 c -0.181 0 -0.36 -0.049 -0.52 -0.146 c -0.298 -0.182 -0.48 -0.505 -0.48 -0.854 V 26.77 c 0 -0.374 0.208 -0.716 0.539 -0.888 l 27.085 -14.053 c 0.313 -0.16 0.683 -0.147 0.98 0.033 c 0.298 0.181 0.48 0.505 0.48 0.854 v 35.023 c 0 0.553 -0.447 1 -1 1 s -1 -0.447 -1 -1 V 14.362 L 52.515 27.377 v 48.261 l 9.173 -4.761 c 0.491 -0.253 1.095 -0.063 1.349 0.427 s 0.063 1.094 -0.427 1.349 l -10.634 5.519 C 51.831 78.247 51.673 78.284 51.515 78.284 z" style="stroke: none; stroke-width: 1; stroke-dasharray: none; stroke-linecap: butt; stroke-linejoin: miter; stroke-miterlimit: 10; fill: rgb(0,0,0); fill-rule: nonzero; opacity: 1;" transform=" matrix(1 0 0 1 0 0) " stroke-linecap="round" />
	<path d="M 32.763 47.025 c -0.188 0 -0.375 -0.053 -0.54 -0.158 l -5.966 -3.821 l -5.966 3.821 c -0.308 0.198 -0.699 0.211 -1.02 0.035 c -0.321 -0.175 -0.52 -0.512 -0.52 -0.877 V 26.77 c 0 -0.374 0.208 -0.716 0.54 -0.888 l 27.085 -14.053 c 0.143 -0.074 0.301 -0.112 0.461 -0.112 h 13.012 c 0.461 0 0.862 0.315 0.972 0.763 c 0.109 0.448 -0.102 0.912 -0.511 1.125 L 33.763 27.377 v 18.648 c 0 0.365 -0.199 0.702 -0.52 0.877 C 33.093 46.984 32.928 47.025 32.763 47.025 z M 20.751 27.377 v 16.82 l 4.966 -3.181 c 0.329 -0.21 0.75 -0.21 1.079 0 l 4.966 3.181 V 26.77 c 0 -0.374 0.208 -0.716 0.54 -0.888 L 55.75 13.716 h -8.669 L 20.751 27.377 z" style="stroke: none; stroke-width: 1; stroke-dasharray: none; stroke-linecap: butt; stroke-linejoin: miter; stroke-miterlimit: 10; fill: rgb(0,0,0); fill-rule: nonzero; opacity: 1;" transform=" matrix(1 0 0 1 0 0) " stroke-linecap="round" />
	<path d="M 71.26 68.301 c -0.266 0 -0.52 -0.105 -0.707 -0.293 l -5.172 -5.172 c -0.391 -0.391 -0.391 -1.023 0 -1.414 s 1.023 -0.391 1.414 0 l 4.465 4.465 l 9.636 -9.637 c 0.391 -0.391 1.023 -0.391 1.414 0 s 0.391 1.023 0 1.414 L 71.967 68.008 C 71.779 68.195 71.525 68.301 71.26 68.301 z" style="stroke: none; stroke-width: 1; stroke-dasharray: none; stroke-linecap: butt; stroke-linejoin: miter; stroke-miterlimit: 10; fill: rgb(0,0,0); fill-rule: nonzero; opacity: 1;" transform=" matrix(1 0 0 1 0 0) " stroke-linecap="round" />
	<path d="M 73.846 78.284 c -8.908 0 -16.155 -7.247 -16.155 -16.155 c 0 -8.907 7.247 -16.154 16.155 -16.154 C 82.753 45.975 90 53.222 90 62.129 C 90 71.037 82.753 78.284 73.846 78.284 z M 73.846 47.975 c -7.806 0 -14.155 6.35 -14.155 14.154 c 0 7.806 6.35 14.155 14.155 14.155 C 81.65 76.284 88 69.935 88 62.129 C 88 54.324 81.65 47.975 73.846 47.975 z" style="stroke: none; stroke-width: 1; stroke-dasharray: none; stroke-linecap: butt; stroke-linejoin: miter; stroke-miterlimit: 10; fill: rgb(0,0,0); fill-rule: nonzero; opacity: 1;" transform=" matrix(1 0 0 1 0 0) " stroke-linecap="round" />
</g>
</svg>