<?xml version="1.0" encoding="iso-8859-1"?>
<!-- Uploaded to: SVG Repo, www.svgrepo.com, Generator: SVG Repo Mixer Tools -->
<svg version="1.1" id="Layer_1" xmlns="http://www.w3.org/2000/svg" xmlns:xlink="http://www.w3.org/1999/xlink" 
	 viewBox="0 0 512 512" xml:space="preserve">
<path style="fill:#EBE5DD;" d="M470.204,312.424H41.796V78.367c0-11.542,9.356-20.898,20.898-20.898h386.612
	c11.542,0,20.898,9.356,20.898,20.898V312.424z"/>
<path style="fill:#D9CCBC;" d="M470.204,78.367v234.057H256V57.469h193.306C460.848,57.469,470.204,66.825,470.204,78.367z"/>
<path style="fill:#C0AB91;" d="M470.204,78.367V190.14c-8.297,3.02-18.265,5.256-33.092,5.256
	c-45.286,0-45.286-20.898-90.561-20.898s-45.275,20.898-90.561,20.898c-45.275,0-45.275-20.898-90.551-20.898
	s-45.275,20.898-90.561,20.898c-14.817,0-24.785-2.236-33.081-5.256V78.367c0-11.542,9.356-20.898,20.898-20.898h386.612
	C460.848,57.469,470.204,66.825,470.204,78.367z"/>
<path style="fill:#957856;" d="M470.204,78.367V190.14c-8.297,3.02-18.265,5.256-33.092,5.256
	c-45.286,0-45.286-20.898-90.561-20.898S301.275,195.396,256,195.396V57.469h193.306C460.848,57.469,470.204,66.825,470.204,78.367z
	"/>
<path style="fill:#B3D8F4;" d="M390.792,454.531H121.208l0,0c0-15.581,12.631-28.212,28.212-28.212H362.58
	C378.161,426.318,390.792,438.949,390.792,454.531L390.792,454.531z"/>
<path style="fill:#5AAAE7;" d="M390.792,454.531H256v-28.212h106.58C378.159,426.318,390.792,438.951,390.792,454.531z"/>
<rect y="304.588" width="512" height="15.673"/>
<rect x="34.482" y="327.576" width="443.037" height="15.673"/>
<path style="fill:#6A563D;" d="M437.112,203.233c-24.365,0-36.671-5.679-48.57-11.171c-10.838-5.002-21.076-9.727-41.991-9.727
	s-31.153,4.724-41.991,9.727c-11.9,5.493-24.205,11.171-48.57,11.171c-24.36,0-36.661-5.679-48.56-11.17
	c-10.838-5.002-21.075-9.728-41.991-9.728c-20.916,0-31.153,4.724-41.991,9.727c-11.899,5.492-24.205,11.171-48.57,11.171
	c-13.85,0-24.88-1.767-35.763-5.728l5.362-14.729c6.117,2.228,15.101,4.784,30.4,4.784c20.923,0,31.162-4.726,42.003-9.729
	c11.898-5.491,24.201-11.169,48.558-11.169c24.36,0,36.661,5.679,48.56,11.17c10.839,5.002,21.075,9.728,41.991,9.728
	c20.922,0,31.162-4.726,42.002-9.729c11.898-5.491,24.202-11.169,48.56-11.169c24.359,0,36.661,5.679,48.56,11.169
	c10.84,5.003,21.079,9.729,42.002,9.729c15.308,0,24.294-2.556,30.411-4.784l5.361,14.729
	C462.001,201.466,450.969,203.233,437.112,203.233z"/>
<rect x="248.163" y="332.278" width="15.673" height="94.041"/>
<path d="M398.629,462.367H113.371v-7.837c0-19.877,16.172-36.049,36.049-36.049H362.58c19.877,0,36.049,16.172,36.049,36.049
	V462.367z M130.612,446.694h250.775c-3.076-7.357-10.348-12.539-18.808-12.539H149.42
	C140.961,434.155,133.688,439.337,130.612,446.694z"/>
<g>
	<rect x="159.347" y="82.547" style="fill:#FFFFFF;" width="15.673" height="15.673"/>
	<rect x="99.119" y="146.098" style="fill:#FFFFFF;" width="15.673" height="15.673"/>
	<rect x="70.207" y="97.625" style="fill:#FFFFFF;" width="15.673" height="15.673"/>
	<rect x="380.541" y="144.645" style="fill:#FFFFFF;" width="15.673" height="15.673"/>
	<rect x="329.341" y="87.176" style="fill:#FFFFFF;" width="15.673" height="15.673"/>
	<rect x="271.151" y="121.657" style="fill:#FFFFFF;" width="15.673" height="15.673"/>
	<rect x="418.482" y="83.592" style="fill:#FFFFFF;" width="15.673" height="15.673"/>
	<rect x="212.114" y="135.314" style="fill:#FFFFFF;" width="15.673" height="15.673"/>
</g>
<path d="M49.633,312.424H33.959V78.367c0-15.844,12.89-28.735,28.735-28.735h386.612c15.844,0,28.735,12.891,28.735,28.735v211.069
	h-15.673V78.367c0-7.202-5.859-13.061-13.061-13.061H62.694c-7.202,0-13.061,5.859-13.061,13.061V312.424z"/>
</svg>