<?xml version="1.0" encoding="iso-8859-1"?>
<!-- Uploaded to: SVG Repo, www.svgrepo.com, Generator: SVG Repo Mixer Tools -->
<svg height="800px" width="800px" version="1.1" id="Layer_1" xmlns="http://www.w3.org/2000/svg" xmlns:xlink="http://www.w3.org/1999/xlink" 
	 viewBox="0 0 512 512" xml:space="preserve">
<path style="fill:#EBE5DD;" d="M131.062,166.491L131.062,166.491c0-34.819,28.227-63.046,63.046-63.046h150.03
	c34.819,0,63.046,28.227,63.046,63.046l0,0"/>
<path style="fill:#D9CCBC;" d="M407.186,166.494H269.124v-63.049h75.013C378.953,103.445,407.186,131.668,407.186,166.494z"/>
<path style="fill:#EBE5DD;" d="M131.062,190.171v101.724c0,71.981,55.089,131.086,125.404,137.477
	c4.169,0.379,8.387,0.583,12.656,0.583l0,0c76.248,0,138.06-61.812,138.06-138.06V190.171H131.062z"/>
<path style="fill:#D9CCBC;" d="M407.186,190.171v101.721c0,38.128-15.454,72.641-40.438,97.625
	c-24.984,24.984-59.496,40.438-97.625,40.438V190.171H407.186z"/>
<path style="fill:#C0AB91;" d="M407.186,261.224v30.668c0,38.128-15.454,72.641-40.438,97.625
	c-24.984,24.984-59.496,40.438-97.625,40.438c-4.274,0-8.485-0.199-12.654-0.585c-70.322-6.384-125.409-65.494-125.409-137.477
	v-30.689c32.998-0.69,33.583-20.877,67.73-20.877c34.743,0,34.743,20.898,69.486,20.898s34.743-20.898,69.486-20.898
	C372.485,240.327,372.506,261.204,407.186,261.224z"/>
<path style="fill:#957856;" d="M407.186,261.224v30.668c0,38.128-15.454,72.641-40.438,97.625
	c-24.984,24.984-59.496,40.438-97.625,40.438V261.214c33.897-0.334,34.179-20.888,68.639-20.888
	C372.485,240.327,372.506,261.204,407.186,261.224z"/>
<polygon style="fill:#B3D8F4;" points="98.848,459.293 136.815,504.163 401.43,504.163 439.397,459.293 "/>
<polygon style="fill:#5AAAE7;" points="439.397,459.293 269.122,459.293 269.122,504.163 401.43,504.163 "/>
<path style="fill:#FFFFFF;" d="M407.249,269.061c-19.546,0-29.764-6.147-38.78-11.57c-8.321-5.005-15.506-9.328-30.702-9.328
	s-22.382,4.323-30.702,9.328c-9.016,5.423-19.236,11.57-38.782,11.57s-29.767-6.147-38.783-11.57
	c-8.322-5.005-15.508-9.328-30.704-9.328c-15.197,0-22.383,4.323-30.704,9.328c-9.016,5.423-19.237,11.57-38.783,11.57v-15.673
	c15.196,0,22.383-4.323,30.704-9.328c9.016-5.423,19.237-11.57,38.783-11.57s29.767,6.147,38.783,11.57
	c8.322,5.005,15.508,9.328,30.704,9.328c15.196,0,22.383-4.323,30.703-9.328c9.016-5.423,19.236-11.57,38.781-11.57
	c19.547,0,29.765,6.147,38.781,11.57c8.321,5.005,15.506,9.328,30.701,9.328L407.249,269.061L407.249,269.061z"/>
<path d="M105.751,284.059c-23.593,0-42.785-19.194-42.785-42.785v-24.16c0-23.592,19.194-42.785,42.785-42.785h323.441v-15.673
	h-14.615c-3.914-35.41-34.005-63.046-70.44-63.046h-118.7v15.673h118.7c27.782,0,50.825,20.629,54.643,47.373H139.465
	c3.818-26.743,26.861-47.373,54.643-47.373h0.505v32.914h15.673V49.968c10.293-3.319,17.763-12.985,17.763-24.368
	c0-14.116-11.484-25.6-25.6-25.6c-14.116,0-25.6,11.484-25.6,25.6c0,11.383,7.47,21.049,17.763,24.368v45.64h-0.505
	c-36.436,0-66.526,27.636-70.439,63.046h-17.918c-32.235,0-58.459,26.225-58.459,58.459v24.16c0,32.234,26.225,58.459,58.459,58.459
	C105.751,299.732,105.751,284.059,105.751,284.059z M202.449,15.673c5.473,0,9.927,4.453,9.927,9.927s-4.453,9.927-9.927,9.927
	c-5.473,0-9.927-4.453-9.927-9.927S196.976,15.673,202.449,15.673z"/>
<path d="M429.192,198.008v-15.673H108.408v15.673h14.818v93.887c0,80.448,65.449,145.897,145.897,145.897
	S415.02,372.343,415.02,291.895v-78.736h-15.673v78.736c0,71.805-58.418,130.224-130.224,130.224s-130.224-58.418-130.224-130.224
	v-93.887H429.192z"/>
<path d="M464.708,451.458H73.537v15.673h21.676L133.18,512h271.886l37.966-44.869h21.676V451.458z M397.796,496.327H140.449
	l-24.705-29.195h306.755L397.796,496.327z"/>
</svg>