<?xml version="1.0" encoding="iso-8859-1"?>
<!-- Uploaded to: SVG Repo, www.svgrepo.com, Generator: SVG Repo Mixer Tools -->
<svg version="1.1" id="Layer_1" xmlns="http://www.w3.org/2000/svg" xmlns:xlink="http://www.w3.org/1999/xlink" 
	 viewBox="0 0 511.999 511.999" xml:space="preserve">
<path style="fill:#C0AB91;" d="M420.214,436.852H91.786v-250.8c0-16.49,13.367-29.857,29.857-29.857h268.714
	c16.49,0,29.857,13.368,29.857,29.857v250.8H420.214z"/>
<path style="fill:#957856;" d="M420.214,186.052v250.799H256V156.194h134.357C406.846,156.195,420.214,169.563,420.214,186.052z"/>
<path style="fill:#EBE5DD;" d="M91.786,186.052v149.286h328.428V186.052c0-16.49-13.367-29.857-29.857-29.857H121.643
	C105.153,156.195,91.786,169.563,91.786,186.052z"/>
<path style="fill:#D9CCBC;" d="M420.214,186.052v149.286H256V156.195h134.357C406.846,156.195,420.214,169.563,420.214,186.052z"/>
<path style="fill:#A5001E;" d="M420.214,186.052v61.475c-6.748,4.29-14.73,7.693-27.379,7.693
	c-34.206,0-34.206-24.881-68.422-24.881s-34.216,24.881-68.422,24.881s-34.206-24.881-68.422-24.881
	c-34.206,0-34.206,24.881-68.422,24.881c-12.649,0-20.611-3.394-27.359-7.683v-61.486c0-16.49,13.367-29.857,29.857-29.857h268.714
	C406.846,156.195,420.214,169.563,420.214,186.052z"/>
<path style="fill:#830018;" d="M420.214,186.052v61.475c-6.748,4.29-14.73,7.693-27.379,7.693
	c-34.206,0-34.206-24.881-68.422-24.881S290.197,255.22,256,255.22v-99.026h134.357
	C406.846,156.195,420.214,169.563,420.214,186.052z"/>
<circle style="fill:#A5001E;" cx="256.693" cy="97.515" r="36.791"/>
<path style="fill:#830018;" d="M293.476,97.511c0,20.319-16.47,36.789-36.789,36.789V60.723
	C277.007,60.723,293.476,77.192,293.476,97.511z"/>
<polygon style="fill:#B3D8F4;" points="85.917,459.353 123.841,504.172 388.159,504.172 426.083,459.353 "/>
<polygon style="fill:#5AAAE7;" points="426.083,459.353 256,459.353 256,504.172 388.159,504.172 "/>
<g>
	<path style="fill:#FFFFFF;" d="M392.834,263.048c-19.646,0-29.826-7.404-38.809-13.936c-8.075-5.873-15.049-10.944-29.613-10.944
		c-14.564,0-21.538,5.071-29.614,10.944c-8.981,6.532-19.162,13.936-38.81,13.936c-19.647,0-29.827-7.404-38.81-13.936
		c-8.074-5.872-15.048-10.943-29.611-10.943c-14.556,0-21.529,5.07-29.601,10.941c-8.983,6.534-19.166,13.938-38.821,13.938
		c-15.557,0-25.038-4.758-31.559-8.905l8.401-13.211c5.278,3.356,11.736,6.461,23.158,6.461c14.564,0,21.538-5.071,29.614-10.944
		c8.981-6.532,19.162-13.936,38.81-13.936c19.654,0,29.837,7.405,38.82,13.938c8.072,5.871,15.045,10.941,29.601,10.941
		c14.556,0,21.529-5.07,29.601-10.941c8.983-6.534,19.166-13.938,38.821-13.938c19.655,0,29.838,7.405,38.821,13.938
		c8.072,5.871,15.044,10.941,29.6,10.941c11.426,0,17.894-3.109,23.18-6.47l8.399,13.211
		C417.883,258.285,408.395,263.048,392.834,263.048z"/>
	<rect x="91.785" y="327.51" style="fill:#FFFFFF;" width="328.428" height="15.656"/>
</g>
<path d="M451.365,451.525H60.634v15.656h21.652l37.924,44.818h271.58l37.924-44.818h21.652V451.525z M384.528,496.344H127.471
	l-24.676-29.164h306.41L384.528,496.344z"/>
<path d="M256.687,142.107c11.426,0,22.852-4.349,31.551-13.048c15.606-15.607,17.201-39.99,4.803-57.404
	C309.698,50.434,308.27,19.545,288.725,0l-11.071,11.072c13.469,13.468,14.833,34.517,4.113,49.534c-7.339-5.01-16-7.71-25.08-7.71
	c-11.918,0-23.122,4.64-31.549,13.068c-8.428,8.427-13.068,19.631-13.068,31.55c0,11.917,4.64,23.122,13.068,31.549
	C233.838,137.758,245.262,142.107,256.687,142.107z M236.21,77.033c5.469-5.469,12.742-8.482,20.478-8.482
	c7.735,0,15.009,3.013,20.478,8.483c11.291,11.291,11.291,29.665,0.001,40.956c-11.295,11.292-29.668,11.291-40.957,0
	c-5.47-5.469-8.483-12.743-8.483-20.478C227.727,89.776,230.74,82.503,236.21,77.033z"/>
<path d="M428.042,186.053c0-20.779-16.905-37.685-37.686-37.685H121.643c-20.779,0-37.685,16.905-37.685,37.685V444.68h344.084
	L428.042,186.053L428.042,186.053z M412.386,429.024H99.614V186.053c0-12.147,9.883-22.029,22.029-22.029h268.714
	c12.147,0,22.03,9.883,22.03,22.029V429.024z"/>
</svg>