<?xml version="1.0" encoding="iso-8859-1"?>
<!-- Uploaded to: SVG Repo, www.svgrepo.com, Generator: SVG Repo Mixer Tools -->
<svg fill="#000000" height="800px" width="800px" version="1.1" id="Layer_1" xmlns="http://www.w3.org/2000/svg" xmlns:xlink="http://www.w3.org/1999/xlink" 
	 viewBox="0 0 512.465 512.465" xml:space="preserve">
<g transform="translate(1)">
	<g>
		<g>
			<path d="M122.236,450.095l-19.549-3.724c-5.585-1.862-9.309-5.585-11.171-8.378s-3.724-7.447-1.862-13.964l21.411-65.164
				c1.862-5.585-0.931-10.24-5.585-12.102c-5.586-1.862-10.24,0.931-12.102,5.585l-21.411,65.164
				c-4.655,13.033,0,23.273,2.793,28.858c2.793,4.655,9.309,13.964,23.273,16.756l19.549,3.724c0.931,0,0.931,0,1.862,0
				c3.724,0,8.378-2.793,10.24-5.585C130.615,455.68,126.891,451.025,122.236,450.095z"/>
			<path d="M469.465,9.775c-13.033-13.033-33.513-13.033-46.545,0l-74.473,74.473c-5.585,6.516-9.309,13.964-9.309,23.273
				c0,5.969,1.156,11.169,3.697,15.852l-53.778,53.778c-13.44-47.566-6.944-89.109,20.292-134.793
				c4.655-6.516,3.724-14.895,0-22.342c-3.724-6.516-10.24-10.24-16.756-10.24H106.411c-6.516,0-13.033,3.724-17.687,10.24
				C85,27.462,85,35.84,88.724,42.356c28.858,48.407,34.444,92.16,17.687,143.36L34.731,404.48
				c-6.516,20.48-3.724,40.96,6.516,59.578s27.927,30.72,48.407,35.375l19.549,3.724c30.72,6.516,60.509,9.309,90.298,9.309
				c29.789,0,59.578-2.793,90.298-9.309l17.687-3.724c20.48-4.655,38.167-17.687,48.407-35.375
				c10.24-18.618,13.033-40.029,6.516-59.578l-67.109-207.509l60.913-60.913c4.85,2.534,10.176,4.044,15.505,4.044
				c8.378,0,16.756-2.793,23.273-9.309l74.473-74.473C482.498,43.287,482.498,22.807,469.465,9.775z M341.931,454.749
				c-8.378,13.033-21.411,23.273-36.305,26.065l-19.549,3.724c-57.716,12.102-115.433,12.102-172.218,0l-19.549-4.655
				c-15.825-2.793-28.858-13.033-36.305-26.065c-7.447-13.033-9.309-28.858-4.655-43.753l71.68-218.764
				c17.687-56.785,12.102-107.055-19.549-159.185c0,0,0-0.931,0-1.862s0.931-1.862,0.931-1.862h186.182l0.931,0.931
				c0,1.862,0,2.793,0,2.793c-31.651,53.062-38.167,103.331-19.549,159.185l72.611,219.695
				C351.24,424.96,349.378,441.716,341.931,454.749z M455.502,43.287l-74.473,74.473c-4.655,5.585-13.964,5.585-19.549,0
				c-1.862-2.793-3.724-6.516-3.724-10.24s0.931-7.447,3.724-10.24l74.473-74.473c2.793-2.793,6.516-3.724,10.24-3.724
				c3.724,0,7.447,0.931,9.309,4.655C461.087,29.324,461.087,37.702,455.502,43.287z"/>
		</g>
	</g>
</g>
</svg>